<svg width="20" height="20" viewBox="0 0 20 20" fill="none" xmlns="http://www.w3.org/2000/svg">
<g clip-path="url(#clip0_158_291)">
<path d="M13.047 3.125C12.8965 3.12254 12.747 3.1503 12.6075 3.20664C12.4679 3.26298 12.3411 3.34676 12.2345 3.453L11.7345 3.9685L15.031 7.281L15.531 6.766C15.6388 6.65827 15.7243 6.53036 15.7826 6.38958C15.841 6.24879 15.871 6.09789 15.871 5.9455C15.871 5.7931 15.841 5.6422 15.7826 5.50142C15.7243 5.36063 15.6388 5.23272 15.531 5.125L13.875 3.4685C13.6549 3.24954 13.3574 3.12612 13.047 3.125ZM11.172 4.422L10.3905 5.172L13.828 8.6095L14.625 7.875L11.172 4.422ZM9.88998 5.719L4.48498 11.0775C4.42366 11.1091 4.3697 11.1532 4.32662 11.2071C4.28354 11.2609 4.25231 11.3232 4.23498 11.39L3.07798 15.3125C3.05185 15.3972 3.04933 15.4875 3.07068 15.5735C3.09202 15.6596 3.13643 15.7382 3.19912 15.8009C3.26181 15.8635 3.34041 15.908 3.42646 15.9293C3.51251 15.9506 3.60276 15.9481 3.68748 15.922L7.60948 14.7655C7.6984 14.7519 7.78188 14.7142 7.85076 14.6563C7.91964 14.5984 7.97127 14.5227 7.99998 14.4375L13.328 9.156L12.594 8.422L7.12498 13.9065L4.92198 14.5465L4.45298 14.078L5.12498 11.7815L10.547 6.375L9.88998 5.719ZM11.0775 6.922L5.59348 12.422L6.38998 12.5935L6.49948 13.3285L11.9995 7.8435L11.0775 6.922Z" fill="black" fill-opacity="0.5"/>
</g>
<defs>
<clipPath id="clip0_158_291">
<rect width="13" height="13" fill="white" transform="translate(3 3)"/>
</clipPath>
</defs>
</svg>
