<svg width="20" height="20" viewBox="0 0 20 20" fill="none" xmlns="http://www.w3.org/2000/svg">
<path fill-rule="evenodd" clip-rule="evenodd" d="M4.26527 7.18151L5.71682 7.02018V4.02888C5.71682 3.57322 6.06394 3.19258 6.51767 3.1507C8.69442 2.94977 10.8851 2.94977 13.0618 3.1507C13.5155 3.19258 13.8627 3.57322 13.8627 4.02888V7.02017L15.3142 7.18151C15.7834 7.23366 16.1704 7.57246 16.2841 8.03058C16.678 9.61673 16.678 11.2751 16.2841 12.8613L16.1759 13.2971C16.124 13.5062 15.9363 13.653 15.7208 13.653H13.8627V15.4826C13.8627 15.9232 13.5288 16.2922 13.0903 16.336C10.8954 16.5555 8.68406 16.5555 6.48913 16.336C6.0507 16.2922 5.71682 15.9232 5.71682 15.4826V13.653H3.85869C3.64322 13.653 3.45548 13.5062 3.40356 13.2971L3.29536 12.8613C2.90155 11.2751 2.90155 9.61673 3.29536 8.03058C3.40911 7.57246 3.79613 7.23366 4.26527 7.18151ZM6.77932 6.91704C8.78287 6.75195 10.7966 6.75195 12.8002 6.91704V4.19396C10.797 4.01868 8.78244 4.01868 6.77932 4.19396V6.91704ZM6.77932 12.7176V15.2967C8.78183 15.4853 10.7976 15.4853 12.8002 15.2967V12.7176C10.7976 12.5291 8.78183 12.5291 6.77932 12.7176ZM13.8627 9.04883C13.3737 9.04883 12.9772 9.44524 12.9772 9.93424C12.9772 10.4232 13.3737 10.8197 13.8627 10.8197C14.3517 10.8197 14.7481 10.4232 14.7481 9.93424C14.7481 9.44524 14.3517 9.04883 13.8627 9.04883Z" fill="black" fill-opacity="0.5"/>
</svg>
