<svg width="20" height="20" viewBox="0 0 20 20" fill="none" xmlns="http://www.w3.org/2000/svg">
<path fill-rule="evenodd" clip-rule="evenodd" d="M11.1684 4.15069C10.5154 3.52417 9.48454 3.52417 8.83162 4.15069L5.36179 7.48019C5.27677 7.56177 5.21959 7.66803 5.19834 7.78392C4.78274 10.0503 4.75206 12.3705 5.10759 14.6471L5.19198 15.1875H7.42433V10.529C7.42433 10.2183 7.67617 9.96651 7.98683 9.96651H12.0131C12.3238 9.96651 12.5756 10.2183 12.5756 10.529V15.1875H14.808L14.8924 14.6471C15.2479 12.3705 15.2172 10.0503 14.8016 7.78392C14.7804 7.66803 14.7232 7.56177 14.6382 7.48019L11.1684 4.15069ZM8.05271 3.33895C9.14092 2.29475 10.8591 2.29475 11.9473 3.33895L15.4171 6.66845C15.6725 6.91355 15.8443 7.23282 15.9082 7.58101C16.3466 9.97173 16.3789 12.4192 16.0039 14.8207L15.8683 15.6888C15.8123 16.0478 15.5031 16.3125 15.1397 16.3125H12.0131C11.7025 16.3125 11.4506 16.0607 11.4506 15.75V11.0915H8.54933V15.75C8.54933 16.0607 8.29749 16.3125 7.98683 16.3125H4.86028C4.49692 16.3125 4.18771 16.0478 4.13164 15.6888L3.99607 14.8207C3.62103 12.4192 3.65339 9.97173 4.09179 7.58101C4.15564 7.23282 4.32745 6.91355 4.58288 6.66845L8.05271 3.33895Z" fill="black" fill-opacity="0.5"/>
</svg>
